# xmcd CD database file
#
# Track frame offsets:
#	150
#	19820
#	42675
#
# Disc length: 828 seconds
#
# Revision: 0
# Processed by: cddbd v1.5.1PL0 Copyright (c) Steve Scherf et al.
# Submitted via: CDex 1.51
#
DISCID=22033a03
DTITLE=モーニング娘。 - 色っぽい　じれったい
DYEAR=2005
DGENRE=JPop
TTITLE0=色っぽい　じれったい
TTITLE1=愛と太陽に包まれて
TTITLE2=色っぽい　じれったい(Instrumental)
EXTD=YEAR: 2005
EXTT0=
EXTT1=
EXTT2=
PLAYORDER=
